<mxfile host="app.diagrams.net" modified="2023-12-20T21:26:00.775Z" agent="Mozilla/5.0 (Windows NT 10.0; Win64; x64) AppleWebKit/537.36 (KHTML, like Gecko) Chrome/120.0.0.0 Safari/537.36" etag="4P6mnmnF5SV48O8KQEJf" version="22.1.11" type="google">
  <diagram id="C5RBs43oDa-KdzZeNtuy" name="Page-1">
    <mxGraphModel dx="1432" dy="3082" grid="1" gridSize="8" guides="1" tooltips="1" connect="1" arrows="1" fold="1" page="1" pageScale="1" pageWidth="827" pageHeight="1169" math="0" shadow="0">
      <root>
        <mxCell id="WIyWlLk6GJQsqaUBKTNV-0" />
        <mxCell id="WIyWlLk6GJQsqaUBKTNV-1" parent="WIyWlLk6GJQsqaUBKTNV-0" />
        <mxCell id="-_zJ0CILrR4ZmAq6nWyd-16" style="edgeStyle=orthogonalEdgeStyle;rounded=0;orthogonalLoop=1;jettySize=auto;html=1;exitX=0.5;exitY=0;exitDx=0;exitDy=0;entryX=0.5;entryY=0;entryDx=0;entryDy=0;" parent="WIyWlLk6GJQsqaUBKTNV-1" source="-_zJ0CILrR4ZmAq6nWyd-4" target="-_zJ0CILrR4ZmAq6nWyd-8" edge="1">
          <mxGeometry relative="1" as="geometry" />
        </mxCell>
        <mxCell id="-_zJ0CILrR4ZmAq6nWyd-4" value="Point" style="swimlane;fontStyle=1;align=center;verticalAlign=top;childLayout=stackLayout;horizontal=1;startSize=26;horizontalStack=0;resizeParent=1;resizeParentMax=0;resizeLast=0;collapsible=1;marginBottom=0;whiteSpace=wrap;html=1;" parent="WIyWlLk6GJQsqaUBKTNV-1" vertex="1">
          <mxGeometry y="-2048" width="160" height="114" as="geometry" />
        </mxCell>
        <mxCell id="-_zJ0CILrR4ZmAq6nWyd-5" value="int _x&lt;br&gt;int _y" style="text;strokeColor=none;fillColor=none;align=left;verticalAlign=top;spacingLeft=4;spacingRight=4;overflow=hidden;rotatable=0;points=[[0,0.5],[1,0.5]];portConstraint=eastwest;whiteSpace=wrap;html=1;" parent="-_zJ0CILrR4ZmAq6nWyd-4" vertex="1">
          <mxGeometry y="26" width="160" height="54" as="geometry" />
        </mxCell>
        <mxCell id="-_zJ0CILrR4ZmAq6nWyd-6" value="" style="line;strokeWidth=1;fillColor=none;align=left;verticalAlign=middle;spacingTop=-1;spacingLeft=3;spacingRight=3;rotatable=0;labelPosition=right;points=[];portConstraint=eastwest;strokeColor=inherit;" parent="-_zJ0CILrR4ZmAq6nWyd-4" vertex="1">
          <mxGeometry y="80" width="160" height="8" as="geometry" />
        </mxCell>
        <mxCell id="-_zJ0CILrR4ZmAq6nWyd-7" value="No Methods in point class" style="text;strokeColor=none;fillColor=none;align=left;verticalAlign=top;spacingLeft=4;spacingRight=4;overflow=hidden;rotatable=0;points=[[0,0.5],[1,0.5]];portConstraint=eastwest;whiteSpace=wrap;html=1;" parent="-_zJ0CILrR4ZmAq6nWyd-4" vertex="1">
          <mxGeometry y="88" width="160" height="26" as="geometry" />
        </mxCell>
        <mxCell id="-_zJ0CILrR4ZmAq6nWyd-32" style="edgeStyle=orthogonalEdgeStyle;rounded=0;orthogonalLoop=1;jettySize=auto;html=1;exitX=0.5;exitY=0;exitDx=0;exitDy=0;entryX=0.5;entryY=0;entryDx=0;entryDy=0;" parent="WIyWlLk6GJQsqaUBKTNV-1" source="-_zJ0CILrR4ZmAq6nWyd-8" target="-_zJ0CILrR4ZmAq6nWyd-22" edge="1">
          <mxGeometry relative="1" as="geometry" />
        </mxCell>
        <mxCell id="-_zJ0CILrR4ZmAq6nWyd-33" style="edgeStyle=orthogonalEdgeStyle;rounded=0;orthogonalLoop=1;jettySize=auto;html=1;exitX=0.5;exitY=0;exitDx=0;exitDy=0;entryX=0.5;entryY=0;entryDx=0;entryDy=0;" parent="WIyWlLk6GJQsqaUBKTNV-1" source="-_zJ0CILrR4ZmAq6nWyd-8" target="-_zJ0CILrR4ZmAq6nWyd-21" edge="1">
          <mxGeometry relative="1" as="geometry" />
        </mxCell>
        <mxCell id="-_zJ0CILrR4ZmAq6nWyd-34" style="edgeStyle=orthogonalEdgeStyle;rounded=0;orthogonalLoop=1;jettySize=auto;html=1;exitX=0.5;exitY=0;exitDx=0;exitDy=0;entryX=0.5;entryY=0;entryDx=0;entryDy=0;" parent="WIyWlLk6GJQsqaUBKTNV-1" source="-_zJ0CILrR4ZmAq6nWyd-8" edge="1">
          <mxGeometry relative="1" as="geometry">
            <mxPoint x="351" y="-1520" as="targetPoint" />
          </mxGeometry>
        </mxCell>
        <mxCell id="-_zJ0CILrR4ZmAq6nWyd-35" style="edgeStyle=orthogonalEdgeStyle;rounded=0;orthogonalLoop=1;jettySize=auto;html=1;exitX=0.5;exitY=0;exitDx=0;exitDy=0;entryX=0.5;entryY=0;entryDx=0;entryDy=0;" parent="WIyWlLk6GJQsqaUBKTNV-1" source="-_zJ0CILrR4ZmAq6nWyd-8" target="-_zJ0CILrR4ZmAq6nWyd-24" edge="1">
          <mxGeometry relative="1" as="geometry" />
        </mxCell>
        <mxCell id="-_zJ0CILrR4ZmAq6nWyd-36" style="edgeStyle=orthogonalEdgeStyle;rounded=0;orthogonalLoop=1;jettySize=auto;html=1;exitX=0.5;exitY=0;exitDx=0;exitDy=0;" parent="WIyWlLk6GJQsqaUBKTNV-1" source="-_zJ0CILrR4ZmAq6nWyd-8" target="-_zJ0CILrR4ZmAq6nWyd-25" edge="1">
          <mxGeometry relative="1" as="geometry" />
        </mxCell>
        <mxCell id="-_zJ0CILrR4ZmAq6nWyd-37" style="edgeStyle=orthogonalEdgeStyle;rounded=0;orthogonalLoop=1;jettySize=auto;html=1;exitX=0.5;exitY=0;exitDx=0;exitDy=0;" parent="WIyWlLk6GJQsqaUBKTNV-1" source="-_zJ0CILrR4ZmAq6nWyd-8" target="-_zJ0CILrR4ZmAq6nWyd-26" edge="1">
          <mxGeometry relative="1" as="geometry" />
        </mxCell>
        <mxCell id="-_zJ0CILrR4ZmAq6nWyd-8" value="Piece" style="swimlane;fontStyle=1;align=center;verticalAlign=top;childLayout=stackLayout;horizontal=1;startSize=26;horizontalStack=0;resizeParent=1;resizeParentMax=0;resizeLast=0;collapsible=1;marginBottom=0;whiteSpace=wrap;html=1;" parent="WIyWlLk6GJQsqaUBKTNV-1" vertex="1">
          <mxGeometry x="254" y="-1856" width="160" height="216" as="geometry" />
        </mxCell>
        <mxCell id="-_zJ0CILrR4ZmAq6nWyd-9" value="Point _position&lt;br&gt;bool _colour&lt;br&gt;enum type" style="text;strokeColor=none;fillColor=none;align=left;verticalAlign=top;spacingLeft=4;spacingRight=4;overflow=hidden;rotatable=0;points=[[0,0.5],[1,0.5]];portConstraint=eastwest;whiteSpace=wrap;html=1;" parent="-_zJ0CILrR4ZmAq6nWyd-8" vertex="1">
          <mxGeometry y="26" width="160" height="94" as="geometry" />
        </mxCell>
        <mxCell id="-_zJ0CILrR4ZmAq6nWyd-10" value="" style="line;strokeWidth=1;fillColor=none;align=left;verticalAlign=middle;spacingTop=-1;spacingLeft=3;spacingRight=3;rotatable=0;labelPosition=right;points=[];portConstraint=eastwest;strokeColor=inherit;" parent="-_zJ0CILrR4ZmAq6nWyd-8" vertex="1">
          <mxGeometry y="120" width="160" height="8" as="geometry" />
        </mxCell>
        <mxCell id="-_zJ0CILrR4ZmAq6nWyd-11" value="Virtual move(Point newPosition)&lt;br&gt;&lt;br&gt;virtual canMove(Point newPosition)" style="text;strokeColor=none;fillColor=none;align=left;verticalAlign=top;spacingLeft=4;spacingRight=4;overflow=hidden;rotatable=0;points=[[0,0.5],[1,0.5]];portConstraint=eastwest;whiteSpace=wrap;html=1;" parent="-_zJ0CILrR4ZmAq6nWyd-8" vertex="1">
          <mxGeometry y="128" width="160" height="88" as="geometry" />
        </mxCell>
        <mxCell id="-_zJ0CILrR4ZmAq6nWyd-21" value="Pawn" style="html=1;whiteSpace=wrap;" parent="WIyWlLk6GJQsqaUBKTNV-1" vertex="1">
          <mxGeometry y="-1520" width="110" height="50" as="geometry" />
        </mxCell>
        <mxCell id="-_zJ0CILrR4ZmAq6nWyd-22" value="Queen" style="html=1;whiteSpace=wrap;" parent="WIyWlLk6GJQsqaUBKTNV-1" vertex="1">
          <mxGeometry x="152" y="-1520" width="110" height="50" as="geometry" />
        </mxCell>
        <mxCell id="-_zJ0CILrR4ZmAq6nWyd-24" value="Rook" style="html=1;whiteSpace=wrap;" parent="WIyWlLk6GJQsqaUBKTNV-1" vertex="1">
          <mxGeometry x="448" y="-1520" width="110" height="50" as="geometry" />
        </mxCell>
        <mxCell id="-_zJ0CILrR4ZmAq6nWyd-25" value="Bishop" style="html=1;whiteSpace=wrap;" parent="WIyWlLk6GJQsqaUBKTNV-1" vertex="1">
          <mxGeometry x="608" y="-1520" width="110" height="50" as="geometry" />
        </mxCell>
        <mxCell id="-_zJ0CILrR4ZmAq6nWyd-26" value="Knight" style="html=1;whiteSpace=wrap;" parent="WIyWlLk6GJQsqaUBKTNV-1" vertex="1">
          <mxGeometry x="752" y="-1520" width="110" height="50" as="geometry" />
        </mxCell>
        <mxCell id="-_zJ0CILrR4ZmAq6nWyd-38" value="King" style="swimlane;fontStyle=0;childLayout=stackLayout;horizontal=1;startSize=26;fillColor=none;horizontalStack=0;resizeParent=1;resizeParentMax=0;resizeLast=0;collapsible=1;marginBottom=0;whiteSpace=wrap;html=1;" parent="WIyWlLk6GJQsqaUBKTNV-1" vertex="1">
          <mxGeometry x="288" y="-1520" width="140" height="52" as="geometry" />
        </mxCell>
        <mxCell id="-_zJ0CILrR4ZmAq6nWyd-39" value="bool findChecks()" style="text;strokeColor=none;fillColor=none;align=left;verticalAlign=top;spacingLeft=4;spacingRight=4;overflow=hidden;rotatable=0;points=[[0,0.5],[1,0.5]];portConstraint=eastwest;whiteSpace=wrap;html=1;" parent="-_zJ0CILrR4ZmAq6nWyd-38" vertex="1">
          <mxGeometry y="26" width="140" height="26" as="geometry" />
        </mxCell>
        <mxCell id="r_Ks7XPk5YVIuaYP0AG4-6" style="edgeStyle=orthogonalEdgeStyle;rounded=0;orthogonalLoop=1;jettySize=auto;html=1;exitX=0.5;exitY=0;exitDx=0;exitDy=0;entryX=0.5;entryY=0;entryDx=0;entryDy=0;" edge="1" parent="WIyWlLk6GJQsqaUBKTNV-1" source="r_Ks7XPk5YVIuaYP0AG4-0" target="-_zJ0CILrR4ZmAq6nWyd-8">
          <mxGeometry relative="1" as="geometry" />
        </mxCell>
        <mxCell id="r_Ks7XPk5YVIuaYP0AG4-0" value="Board" style="swimlane;fontStyle=1;align=center;verticalAlign=top;childLayout=stackLayout;horizontal=1;startSize=26;horizontalStack=0;resizeParent=1;resizeParentMax=0;resizeLast=0;collapsible=1;marginBottom=0;whiteSpace=wrap;html=1;" vertex="1" parent="WIyWlLk6GJQsqaUBKTNV-1">
          <mxGeometry x="592" y="-2080" width="160" height="114" as="geometry" />
        </mxCell>
        <mxCell id="r_Ks7XPk5YVIuaYP0AG4-1" value="std::vector&amp;lt;Piece*&amp;gt; _pieces&lt;br&gt;char _board[64]" style="text;strokeColor=none;fillColor=none;align=left;verticalAlign=top;spacingLeft=4;spacingRight=4;overflow=hidden;rotatable=0;points=[[0,0.5],[1,0.5]];portConstraint=eastwest;whiteSpace=wrap;html=1;" vertex="1" parent="r_Ks7XPk5YVIuaYP0AG4-0">
          <mxGeometry y="26" width="160" height="54" as="geometry" />
        </mxCell>
        <mxCell id="r_Ks7XPk5YVIuaYP0AG4-2" value="" style="line;strokeWidth=1;fillColor=none;align=left;verticalAlign=middle;spacingTop=-1;spacingLeft=3;spacingRight=3;rotatable=0;labelPosition=right;points=[];portConstraint=eastwest;strokeColor=inherit;" vertex="1" parent="r_Ks7XPk5YVIuaYP0AG4-0">
          <mxGeometry y="80" width="160" height="8" as="geometry" />
        </mxCell>
        <mxCell id="r_Ks7XPk5YVIuaYP0AG4-3" value="+ method(type): type" style="text;strokeColor=none;fillColor=none;align=left;verticalAlign=top;spacingLeft=4;spacingRight=4;overflow=hidden;rotatable=0;points=[[0,0.5],[1,0.5]];portConstraint=eastwest;whiteSpace=wrap;html=1;" vertex="1" parent="r_Ks7XPk5YVIuaYP0AG4-0">
          <mxGeometry y="88" width="160" height="26" as="geometry" />
        </mxCell>
      </root>
    </mxGraphModel>
  </diagram>
</mxfile>
